<svg version="1.1" id="Layer_1" xmlns="http://www.w3.org/2000/svg" xmlns:xlink="http://www.w3.org/1999/xlink" x="0px" y="0px"
	 width="100%" viewBox="0 0 128 112" enable-background="new 0 0 128 112" xml:space="preserve">
<path fill="white" opacity="1.000000" stroke="none" 
	d="
M99.460632,113.000000 
	C86.815880,100.031273 74.738747,86.959183 62.375591,74.163445 
	C59.113228,70.786942 58.539680,68.545372 61.877617,64.717949 
	C68.758072,56.828522 74.924942,48.321259 81.643906,40.284302 
	C84.322220,37.080605 85.976013,34.467537 79.688545,31.172970 
	C88.776329,31.172970 96.073875,31.172970 103.587006,31.172970 
	C103.352348,31.876656 103.234261,32.682869 103.057404,32.695976 
	C95.853767,33.229721 91.717155,38.149464 87.506767,43.186646 
	C81.020088,50.947105 74.301605,58.513805 67.461082,66.417313 
	C81.795647,82.229385 95.994247,97.580605 110.911514,112.672073 
	C107.307091,113.000000 103.614182,113.000000 99.460632,113.000000 
z"/>
<path fill="white" opacity="1.000000" stroke="none" 
	d="
M14.049429,87.061523 
	C2.405951,77.188454 2.229596,56.377460 13.572656,52.022079 
	C14.452065,54.340904 12.504125,55.696064 11.703044,57.351639 
	C5.686497,69.785919 10.537920,82.567993 22.709265,86.138893 
	C36.109795,90.070435 48.581505,81.107231 48.609081,67.241585 
	C48.626957,58.253479 47.911583,49.264904 47.880981,40.275330 
	C47.863415,35.115215 44.187244,33.795094 40.473282,31.806475 
	C48.203693,30.244745 55.830025,30.621975 63.442478,31.026670 
	C63.637867,33.132034 62.464069,33.152615 61.552444,33.354469 
	C57.867416,34.170399 56.213543,36.568260 56.328522,40.200214 
	C56.586140,48.337772 55.890842,56.459026 57.088497,64.624619 
	C59.476200,80.904037 45.024040,94.274345 27.823807,92.044800 
	C23.023830,91.422615 18.267313,90.475044 14.049429,87.061523 
z"/>
<path fill="white" opacity="1.000000" stroke="none" 
	d="
M19.894506,36.100746 
	C13.206699,29.522795 11.627218,21.784855 15.171493,14.064713 
	C18.607426,6.580562 26.121386,2.486244 34.807095,3.368693 
	C35.634308,3.452736 36.458069,3.572691 37.286034,3.647050 
	C47.947933,4.604599 49.410694,6.851442 46.557571,17.944143 
	C44.821583,18.120878 44.955147,16.661558 44.558296,15.662789 
	C42.566174,10.649152 38.368042,7.702644 33.104397,7.614996 
	C28.095545,7.531590 23.222757,10.891598 21.504023,15.613976 
	C19.626698,20.772097 20.718872,25.290100 25.143787,29.021311 
	C29.466860,32.666645 33.814598,36.342098 38.503361,39.478302 
	C43.568371,42.866161 44.015602,47.216473 42.434990,53.206394 
	C34.265675,48.113171 27.477678,41.861137 19.894506,36.100746 
z"/>
<path fill="white" opacity="1.000000" stroke="none" 
	d="
M46.264870,108.081490 
	C44.009468,107.714233 41.808926,108.901367 40.169277,106.345352 
	C46.420372,104.995880 48.219833,100.975845 47.943596,95.031204 
	C47.741360,90.679077 52.536976,90.034286 55.333981,86.934189 
	C58.113422,93.995407 52.072109,104.334976 64.688660,106.319565 
	C64.358818,106.908829 64.028976,107.498093 63.699139,108.087357 
	C58.040569,108.087357 52.382004,108.087357 46.264870,108.081490 
z"/>
</svg>